#!OML:ASF F:\VICON\USERDATA\INSTALL\Justin_Nancy\Justin_Nancy.ASF
:FULLY-SPECIFIED
:DEGREES
316
root 0.558899 17.428 6.65159 2.36328 -0.870296 0.41265
lowerback -1.80068 -0.484565 -2.18149
upperback -3.01348 -0.614799 1.5428
thorax -2.04475 -0.242861 2.80881
lowerneck -16.7506 -4.84605 -10.3468
upperneck 22.4847 -5.82168 7.34412
head 10.5061 -2.72322 3.53142
rclavicle 6.38596e-015 9.54166e-015
rhumerus -33.0405 -15.3307 -77.8166
rradius 30.0697
rwrist 7.078
rhand -16.4552 10.6748
rfingers 7.12502
rthumb 9.76097 -19.079
lclavicle 6.38596e-015 9.54166e-015
lhumerus -35.3205 18.5626 83.0087
lradius 19.0642
lwrist -16.3403
lhand -15.2092 24.5132
lfingers 7.12502
lthumb 10.963 54.2069
rfemur -6.45018 4.7 24.3009
rtibia 28.2294
rfoot -15.4214 -12.1461
rtoes 0.233201
lfemur -8.34368 -4.85924 -21.6156
ltibia 30.6925
lfoot -17.322 5.96528
ltoes 1.65869
317
root 0.548226 17.4293 6.65734 2.43614 -0.810919 0.335192
lowerback -1.86353 -0.469679 -2.17724
upperback -3.00003 -0.593295 1.58117
thorax -1.99673 -0.232584 2.84533
lowerneck -16.7755 -4.86111 -10.4341
upperneck 22.4961 -5.82141 7.36571
head 10.5188 -2.72752 3.55388
rclavicle 3.97569e-016 4.37326e-015
rhumerus -32.974 -15.3593 -77.8193
rradius 30.0432
rwrist 6.95626
rhand -16.4057 10.5415
rfingers 7.12502
rthumb 9.80874 -19.21
lclavicle 3.97569e-016 4.37326e-015
lhumerus -35.1198 18.766 83.0082
lradius 18.8072
lwrist -16.4966
lhand -14.8767 24.8983
lfingers 7.12502
lthumb 11.2836 54.5748
rfemur -6.49549 4.97638 24.4697
rtibia 28.228
rfoot -15.4202 -12.418
rtoes 0.0893109
lfemur -8.42613 -4.95378 -21.4672
ltibia 30.6958
lfoot -17.304 5.91829
ltoes 1.89435
318
root 0.546018 17.4293 6.6709 2.43297 -0.682183 0.43691
lowerback -1.98482 -0.500256 -2.24697
upperback -2.89251 -0.632065 1.55126
thorax -1.81503 -0.254863 2.85158
lowerneck -16.8265 -4.8916 -10.5128
upperneck 22.3625 -5.84551 7.42937
head 10.4873 -2.73581 3.58371
rclavicle 7.20594e-016 5.56597e-015
rhumerus -32.8377 -15.4362 -77.8799
rradius 30.0432
rwrist 7.00084
rhand -16.481 10.4638
rfingers 7.12502
rthumb 9.73611 -19.2911
lclavicle 7.20594e-016 5.56597e-015
lhumerus -34.891 18.4765 83.2651
lradius 18.8403
lwrist -16.0425
lhand -15.117 24.8987
lfingers 7.12502
lthumb 11.0519 54.5877
rfemur -6.40898 4.83551 24.3601
rtibia 28.1946
rfoot -15.5247 -12.4144
rtoes -0.424784
lfemur -8.37174 -5.13242 -21.598
ltibia 30.7039
lfoot -17.37 6.04749
ltoes 1.67469
319
root 0.545379 17.4279 6.68932 2.42769 -0.476734 0.525128
lowerback -2.05138 -0.523336 -2.27819
upperback -2.85316 -0.6617 1.52587
thorax -1.73519 -0.271003 2.84181
lowerneck -16.7797 -4.93436 -10.5963
upperneck 22.2718 -5.89185 7.4667
head 10.4545 -2.76016 3.60326
rclavicle -2.06239e-015 -1.19271e-015
rhumerus -32.7395 -15.7148 -77.812
rradius 29.8143
rwrist 7.35609
rhand -16.6015 10.4585
rfingers 7.12502
rthumb 9.61981 -19.3019
lclavicle -2.06239e-015 -1.19271e-015
lhumerus -34.8966 18.0876 83.5305
lradius 19.1158
lwrist -15.7381
lhand -15.318 24.9635
lfingers 7.12502
lthumb 10.8581 54.6628
rfemur -6.28249 4.56812 24.2597
rtibia 28.1218
rfoot -15.5383 -12.4185
rtoes -0.972542
lfemur -8.27259 -5.17614 -21.7061
ltibia 30.7304
lfoot -17.6425 6.19784
ltoes 0.835492
320
root 0.536099 17.4266 6.69799 2.44293 -0.345271 0.396643
lowerback -1.97262 -0.490536 -2.17672
upperback -2.89098 -0.619503 1.5586
thorax -1.82158 -0.249733 2.81975
lowerneck -16.7483 -4.98241 -10.698
upperneck 22.3341 -5.95853 7.54556
head 10.4844 -2.7914 3.64054
rclavicle -1.98785e-016 -5.56597e-015
rhumerus -32.7247 -16.0352 -77.7075
rradius 29.5287
rwrist 7.45019
rhand -16.71 10.5041
rfingers 7.12502
rthumb 9.51512 -19.261
lclavicle -1.98785e-016 -5.56597e-015
lhumerus -34.9231 18.0819 83.5475
lradius 19.1838
lwrist -15.8584
lhand -15.4084 24.7022
lfingers 7.12502
lthumb 10.7709 54.406
rfemur -6.221 4.73689 24.4908
rtibia 28.0319
rfoot -15.4242 -12.6905
rtoes -0.466493
lfemur -8.26938 -5.27437 -21.5361
ltibia 30.7897
lfoot -17.8708 6.52737
ltoes -0.321012
321
root 0.526096 17.4282 6.70126 2.50992 -0.31948 0.0970578
lowerback -1.8138 -0.423561 -1.91054
upperback -3.01427 -0.532549 1.63081
thorax -2.04455 -0.20628 2.747
lowerneck -16.5709 -4.985 -10.6692
upperneck 22.3512 -5.97382 7.4809
head 10.4553 -2.80733 3.61223
rclavicle 2.95692e-015 -9.14409e-015
rhumerus -32.8471 -16.2938 -77.5658
rradius 29.304
rwrist 7.58593
rhand -16.8434 10.7659
rfingers 7.12502
rthumb 9.38641 -19.0051
lclavicle 2.95692e-015 -9.14409e-015
lhumerus -35.0135 18.3379 83.3232
lradius 19.0662
lwrist -16.5813
lhand -15.2871 24.3174
lfingers 7.12502
lthumb 10.8878 54.0151
rfemur -6.24532 4.97128 24.9039
rtibia 27.9277
rfoot -15.294 -12.9158
rtoes -0.396611
lfemur -8.40841 -5.33082 -21.1508
ltibia 30.8903
lfoot -18.0987 6.4869
ltoes -1.32913
